<svg width="200" height="200" viewBox="0 0 200 200" fill="none" xmlns="http://www.w3.org/2000/svg">
  <g fill="#000000">
    <path
      d="M0 0 C38.47969265 12.32601537 38.47969265 12.32601537 47.9375 25.75 C49 28 49 28 49 30 C49.66 30 50.32 30 51 30 C51.226875 29.29875 51.45375 28.5975 51.6875 27.875 C57.19152079 15.81857352 70.59986581 11.62545867 82.04443359 6.82275391 C83.87411973 6.05296086 85.69710239 5.26728876 87.51953125 4.48046875 C92.1124008 2.51533221 96.06579473 0.98684105 101 0 C104.63 7.26 108.26 14.52 112 22 C107.48684211 27.64144737 107.48684211 27.64144737 103.25 29.4375 C102.28449219 29.85 101.31898438 30.2625 100.32421875 30.6875 C96.59018902 32.16180551 92.83044707 33.55295487 89.0625 34.9375 C74.84187073 40.19894886 58.18755569 47.62488861 51 62 C50.34 62 49.68 62 49 62 C47.65733242 60.00625439 46.32567546 58.00508413 45 56 C34.93578855 45.29022235 23.66984493 39.37953869 10.02758789 34.56494141 C-6.18519748 28.81480252 -6.18519748 28.81480252 -11 24 C-10.79536995 18.38119979 -8.1473786 13.99458219 -5.5 9.1875 C-5.08363281 8.41212891 -4.66726562 7.63675781 -4.23828125 6.83789062 C-1.17816964 1.17816964 -1.17816964 1.17816964 0 0 Z"
      transform="translate(50,44)"
    />
    <path
      d="M0 0 C0.74685059 0.42055664 1.49370117 0.84111328 2.26318359 1.27441406 C3.01599609 1.66757813 3.76880859 2.06074219 4.54443359 2.46582031 C10.22720859 5.97753514 14.26151945 9.73096229 16.26318359 16.27441406 C15.63818359 19.71191406 15.63818359 19.71191406 14.26318359 22.27441406 C13.93318359 22.93441406 13.60318359 23.59441406 13.26318359 24.27441406 C9.22017184 22.78922607 5.65172103 20.84563408 1.95068359 18.64941406 C0.34773438 17.70195312 0.34773438 17.70195312 -1.28759766 16.73535156 C-2.49996094 16.0121875 -2.49996094 16.0121875 -3.73681641 15.27441406 C-0.85183468 19.21538192 2.11002916 21.83953193 6.13818359 24.58691406 C6.69900635 24.97588867 7.2598291 25.36486328 7.83764648 25.765625 C10.81127628 27.78724913 13.78831615 29.5913267 17.01708984 31.17675781 C25.06798812 35.16941091 29.09730475 38.82410488 32.63818359 47.22363281 C33.35004745 50.69841824 32.91099468 52.19048984 31.26318359 55.27441406 C27.18575216 54.69520217 24.4384871 53.39200727 20.96630859 51.20410156 C19.93675049 50.56190674 18.90719238 49.91971191 17.84643555 49.25805664 C16.7464624 48.56220459 15.64648926 47.86635254 14.51318359 47.14941406 C12.18061283 45.68906856 9.84482195 44.23390351 7.50927734 42.77832031 C6.91322189 42.4058165 6.31716644 42.03331268 5.70304871 41.64952087 C-1.6464797 37.06483006 -9.09595433 32.64863913 -16.55029297 28.23681641 C-21.78943522 25.11745297 -26.8407542 21.91051061 -31.73681641 18.27441406 C-27.82386653 13.94395966 -22.58540736 11.16836831 -17.67675781 8.10229492 C-16.46530484 7.34110352 -15.25888451 6.57184405 -14.05761719 5.79467773 C-12.31820362 4.66955255 -10.56515457 3.56938336 -8.80712891 2.47363281 C-7.76314941 1.81194092 -6.71916992 1.15024902 -5.64355469 0.46850586 C-2.73681641 -0.72558594 -2.73681641 -0.72558594 0 0 Z M-3.73681641 8.27441406 C-4.06681641 8.93441406 -4.39681641 9.59441406 -4.73681641 10.27441406 C-2.75681641 10.27441406 -0.77681641 10.27441406 1.26318359 10.27441406 C0.93318359 9.61441406 0.60318359 8.95441406 0.26318359 8.27441406 C-1.05681641 8.27441406 -2.37681641 8.27441406 -3.73681641 8.27441406 Z M1.26318359 10.27441406 C2.25318359 11.26441406 3.24318359 12.25441406 4.26318359 13.27441406 C4.92318359 12.94441406 5.58318359 12.61441406 6.26318359 12.27441406 C3.78818359 11.28441406 3.78818359 11.28441406 1.26318359 10.27441406 Z M8.26318359 14.27441406 C8.59318359 14.93441406 8.92318359 15.59441406 9.26318359 16.27441406 C9.92318359 15.94441406 10.58318359 15.61441406 11.26318359 15.27441406 C10.27318359 14.94441406 9.28318359 14.61441406 8.26318359 14.27441406 Z"
      transform="translate(134.73681640625,113.7255859375)"
    />
    <path
      d="M0 0 C1.39620153 0.95757184 2.78944745 1.92053738 4.15136719 2.92626953 C6.3258727 4.46173912 8.57611427 5.83347535 10.8515625 7.21484375 C17.93463971 11.53757992 17.93463971 11.53757992 21.16796875 13.578125 C21.89395264 14.03219727 22.61993652 14.48626953 23.36791992 14.95410156 C23.88588135 15.36112305 24.40384277 15.76814453 24.9375 16.1875 C24.9375 16.8475 24.9375 17.5075 24.9375 18.1875 C23.06254977 19.45571451 21.12004879 20.62425547 19.15625 21.75 C18.25539169 22.27128479 18.25539169 22.27128479 17.33633423 22.80310059 C16.04523849 23.54938526 14.75224263 24.2923902 13.45758057 25.0324707 C10.09587539 26.95460591 6.74786808 28.90033106 3.3984375 30.84375 C2.74156952 31.22406372 2.08470154 31.60437744 1.40792847 31.99621582 C-3.43159093 34.80367056 -8.21228014 37.69101911 -12.9375 40.6875 C-13.53908936 41.0676123 -14.14067871 41.44772461 -14.76049805 41.83935547 C-15.92792699 42.57716928 -17.09516864 43.31527952 -18.26220703 44.05371094 C-21.61705656 46.16652911 -24.99053645 48.24751383 -28.375 50.3125 C-29.0045459 50.70373047 -29.6340918 51.09496094 -30.28271484 51.49804688 C-34.71737321 54.1875 -34.71737321 54.1875 -38.0625 54.1875 C-39.65415314 51.19144703 -40.16488838 49.68003496 -39.46484375 46.3125 C-34.5880969 35.90877339 -27.04459082 31.80967574 -17.2890625 26.35546875 C-11.91316731 23.28994992 -7.51187041 19.46186457 -3.0625 15.1875 C-6.45388934 16.31796311 -9.17350294 17.93056625 -12.25 19.75 C-13.33667969 20.39066406 -14.42335938 21.03132813 -15.54296875 21.69140625 C-16.37441406 22.18511719 -17.20585938 22.67882812 -18.0625 23.1875 C-22.85995198 18.85431756 -22.85995198 18.85431756 -23.0625 15.1875 C-20.50095154 7.65427619 -15.132968 2.62161311 -8.1796875 -0.95703125 C-4.49226138 -1.96899406 -3.34302946 -1.76524453 0 0 Z M-13.0625 11.1875 C-11.09017749 12.44723028 -11.09017749 12.44723028 -8.8984375 11.62890625 C-8.08632813 11.33886719 -7.27421875 11.04882812 -6.4375 10.75 C-5.21160156 10.31880859 -5.21160156 10.31880859 -3.9609375 9.87890625 C-3.33445312 9.65074219 -2.70796875 9.42257813 -2.0625 9.1875 C-2.3925 8.5275 -2.7225 7.8675 -3.0625 7.1875 C-7.78156188 7.1875 -9.33287031 8.47504204 -13.0625 11.1875 Z M-15.0625 12.1875 C-16.0525 13.1775 -17.0425 14.1675 -18.0625 15.1875 C-16.4125 14.5275 -14.7625 13.8675 -13.0625 13.1875 C-13.7225 12.8575 -14.3825 12.5275 -15.0625 12.1875 Z"
      transform="translate(72.0625,114.8125)"
    />
    <path
      d="M0 0 C4.87838834 0.63382812 8.73457523 1.53012061 12.02783203 5.35546875 C13.86151041 8.34315699 15.48875502 11.36777059 17.0625 14.5 C17.62904297 15.55832031 18.19558594 16.61664063 18.77929688 17.70703125 C22.69791387 25.09374161 22.69791387 25.09374161 24 29 C17.37360451 33.52571999 10.5847816 37.71429117 3.6875 41.8125 C1.48390014 43.12680833 -0.71920508 44.44194625 -2.921875 45.7578125 C-3.49120255 46.09783798 -4.06053009 46.43786346 -4.64710999 46.78819275 C-8.97158688 49.37486997 -13.27798813 51.99027918 -17.578125 54.6171875 C-18.2048259 54.9996312 -18.83152679 55.38207489 -19.47721863 55.77610779 C-21.93833867 57.27824277 -24.39941363 58.78040384 -26.8565979 60.28897095 C-33.12521764 64.1371005 -39.34953925 67.84978175 -46 71 C-48.31 69.35 -50.62 67.7 -53 66 C-46.12908562 50.62526875 -28.69500091 41.15009095 -13.82421875 35.4375 C-11.35391633 34.50167513 -8.87703905 33.59120815 -6.39453125 32.6875 C-0.21188025 30.41080458 4.87580654 28.17085514 10 24 C8.48437197 18.92663458 6.30018445 14.42897777 3.875 9.75 C0 2.26816609 0 2.26816609 0 0 Z"
      transform="translate(154,45)"
    />
    <path
      d="M0 0 C-1.72349963 5.84889767 -4.48926926 10.94752234 -7.4296875 16.25390625 C-9.54772679 20.08564974 -9.54772679 20.08564974 -9.54296875 24.31640625 C-3.58034754 30.82245623 7.71637035 33.51522945 15.88452148 36.28833008 C27.04596968 40.18520992 35.49929961 45.66734224 43.75 54.125 C44.56726563 54.92292969 45.38453125 55.72085938 46.2265625 56.54296875 C46.99226563 57.31511719 47.75796875 58.08726563 48.546875 58.8828125 C49.23620117 59.57777832 49.92552734 60.27274414 50.63574219 60.98876953 C52 63 52 63 51.90722656 65.11669922 C50.44768529 68.14654351 47.81637167 69.32216156 45 71 C30.99410766 62.74472668 17.01818665 54.44379848 3.125 46 C2.00512695 45.31945557 0.88525391 44.63891113 -0.26855469 43.93774414 C-7.86087685 39.31635517 -15.43412335 34.6645126 -23 30 C-22.04230111 24.00344546 -19.25942489 19.1880747 -16.4375 13.875 C-15.93669922 12.87339844 -15.43589844 11.87179688 -14.91992188 10.83984375 C-10.58509515 2.69496126 -10.58509515 2.69496126 -5.72265625 0.8203125 C-2 0 -2 0 0 0 Z"
      transform="translate(46,45)"
    />
    <path
      d="M0 0 C6.24577051 2.19445991 8.19816035 5.01668281 11.13671875 10.875 C12.00200195 12.59976563 12.00200195 12.59976563 12.88476562 14.359375 C13.18036377 14.95685547 13.47596191 15.55433594 13.78051758 16.16992188 C14.68655812 17.9980995 15.6052552 19.8195083 16.52539062 21.640625 C17.09837891 22.79046875 17.67136719 23.9403125 18.26171875 25.125 C18.78725342 26.17945312 19.31278809 27.23390625 19.85424805 28.3203125 C21 31 21 31 21 34 C18.99414062 35.57128906 18.99414062 35.57128906 16.15625 37.265625 C15.10655029 37.90072998 14.05685059 38.53583496 12.9753418 39.19018555 C11.81691568 39.87682605 10.65846785 40.56342991 9.5 41.25 C8.3128009 41.96464557 7.12636719 42.68056406 5.94067383 43.39770508 C4.11015745 44.50460319 2.27917701 45.61064268 0.445755 46.71272278 C-5.51906271 50.29885703 -11.41961318 53.98449472 -17.3125 57.6875 C-25.64901712 62.91155366 -34.00328763 68.10553943 -42.37744141 73.26904297 C-46.75815248 75.9750491 -51.12102454 78.70551647 -55.4609375 81.4765625 C-56.33903076 82.03641846 -57.21712402 82.59627441 -58.12182617 83.1730957 C-59.79643857 84.24313303 -61.4685992 85.31701989 -63.13793945 86.39526367 C-64.25108521 87.10646362 -64.25108521 87.10646362 -65.38671875 87.83203125 C-66.03858154 88.25202393 -66.69044434 88.6720166 -67.36206055 89.10473633 C-69 90 -69 90 -71 90 C-72.1391901 85.22292452 -72.1391901 85.22292452 -71 82 C-67.0141127 78.49957333 -62.37804191 76.1012615 -57.75 73.5625 C-56.37867697 72.78075487 -55.00923039 71.99570966 -53.64160156 71.20751953 C-50.81972347 69.58396985 -47.99081535 67.97384562 -45.15625 66.37255859 C-39.52089434 63.17416192 -33.99084984 59.80734699 -28.46508789 56.42425537 C-26.75403509 55.37746858 -25.04053611 54.33481036 -23.32617188 53.29345703 C-11.18444815 45.91615783 0.9105054 38.46248215 13 31 C9.27096144 22.30626512 5.48746703 13.72431749 1.06640625 5.35546875 C0 3 0 3 0 0 Z"
      transform="translate(172,41)"
    />
    <path
      d="M0 0 C-4.62 9.57 -9.24 19.14 -14 29 C-10.43524558 31.85180353 -7.23276418 34.18726488 -3.37109375 36.51171875 C-2.26789795 37.17840576 -1.16470215 37.84509277 -0.02807617 38.53198242 C1.16876551 39.25051667 2.36562471 39.96902174 3.5625 40.6875 C4.81232182 41.44143412 6.06191087 42.19575423 7.3112793 42.95043945 C9.90909166 44.51924218 12.50789796 46.08637883 15.10742188 47.65234375 C18.8310864 49.89664274 22.54939295 52.14966989 26.265625 54.40625 C26.85236496 54.76226288 27.43910492 55.11827576 28.04362488 55.4850769 C30.96050895 57.25572839 33.87469678 59.03059782 36.78442383 60.81298828 C42.43103419 64.26616824 48.10492466 67.64758942 53.87109375 70.8984375 C55.48600708 71.82716675 55.48600708 71.82716675 57.13354492 72.7746582 C59.15756438 73.93579369 61.19505641 75.07386351 63.24731445 76.18432617 C69.708071 79.9320663 69.708071 79.9320663 70.59570312 83.17919922 C70.609375 85.40234375 70.609375 85.40234375 70 89 C66.42916912 87.67251074 63.32334436 86.08489016 60.10546875 84.05078125 C59.16268066 83.45789307 58.21989258 82.86500488 57.24853516 82.25415039 C56.23839355 81.61340576 55.22825195 80.97266113 54.1875 80.3125 C52.01176468 78.94263538 49.83598214 77.57284575 47.66015625 76.203125 C45.99557373 75.1522168 45.99557373 75.1522168 44.29736328 74.08007812 C39.24791844 70.89473309 34.18738443 67.72722792 29.125 64.5625 C27.66199463 63.64742676 27.66199463 63.64742676 26.16943359 62.71386719 C15.52055822 56.06157675 4.82386255 49.48754582 -5.87646484 42.91845703 C-11.25328004 39.61604857 -16.62654466 36.3078719 -22 33 C-19.93543383 26.49954524 -17.09605138 20.47075087 -14.1875 14.3125 C-13.66607422 13.17232422 -13.14464844 12.03214844 -12.60742188 10.85742188 C-12.09115234 9.76623047 -11.57488281 8.67503906 -11.04296875 7.55078125 C-10.57914795 6.55731689 -10.11532715 5.56385254 -9.63745117 4.5402832 C-7.06080346 0.54296406 -4.69262985 -1.56420995 0 0 Z"
      transform="translate(29,42)"
    />
  </g>
</svg>

